<svg width="18" height="20" viewBox="0 0 18 20" fill="none" xmlns="http://www.w3.org/2000/svg">
<path d="M16.8975 5.8525L11.6475 0.6025C11.5421 0.496981 11.3991 0.437631 11.25 0.4375H2.25C1.9019 0.4375 1.56806 0.575781 1.32192 0.821922C1.07578 1.06806 0.9375 1.4019 0.9375 1.75V18.25C0.9375 18.5981 1.07578 18.9319 1.32192 19.1781C1.56806 19.4242 1.9019 19.5625 2.25 19.5625H15.75C16.0981 19.5625 16.4319 19.4242 16.6781 19.1781C16.9242 18.9319 17.0625 18.5981 17.0625 18.25V6.25C17.0624 6.10087 17.003 5.95789 16.8975 5.8525ZM15.9375 18.25C15.9375 18.2997 15.9177 18.3474 15.8826 18.3826C15.8474 18.4177 15.7997 18.4375 15.75 18.4375H2.25C2.20027 18.4375 2.15258 18.4177 2.11742 18.3826C2.08225 18.3474 2.0625 18.2997 2.0625 18.25V1.75C2.0625 1.70027 2.08225 1.65258 2.11742 1.61742C2.15258 1.58225 2.20027 1.5625 2.25 1.5625H11.0175L15.9375 6.48344V18.25ZM3.9375 9.25V16C3.9375 16.1492 3.99676 16.2923 4.10225 16.3977C4.20774 16.5032 4.35082 16.5625 4.5 16.5625H13.5C13.6492 16.5625 13.7923 16.5032 13.8977 16.3977C14.0032 16.2923 14.0625 16.1492 14.0625 16V9.25C14.0625 9.10082 14.0032 8.95774 13.8977 8.85225C13.7923 8.74676 13.6492 8.6875 13.5 8.6875H4.5C4.35082 8.6875 4.20774 8.74676 4.10225 8.85225C3.99676 8.95774 3.9375 9.10082 3.9375 9.25ZM5.0625 9.8125H12.9375V15.4375H11.0625V12.25C11.0625 12.1008 11.0032 11.9577 10.8977 11.8523C10.7923 11.7468 10.6492 11.6875 10.5 11.6875C10.3508 11.6875 10.2077 11.7468 10.1023 11.8523C9.99676 11.9577 9.9375 12.1008 9.9375 12.25V15.4375H8.0625V12.25C8.0625 12.1008 8.00324 11.9577 7.89775 11.8523C7.79226 11.7468 7.64918 11.6875 7.5 11.6875C7.35082 11.6875 7.20774 11.7468 7.10225 11.8523C6.99676 11.9577 6.9375 12.1008 6.9375 12.25V15.4375H5.0625V9.8125Z" fill="#343330"/>
</svg>
